<mxfile host="app.diagrams.net" agent="Mozilla/5.0 (Windows NT 10.0; Win64; x64) AppleWebKit/537.36 (KHTML, like Gecko) Chrome/131.0.0.0 Safari/537.36 Edg/131.0.0.0" version="25.0.1">
  <diagram name="Página-1" id="GDumep3hfHyZ580IadiS">
    <mxGraphModel dx="872" dy="469" grid="1" gridSize="10" guides="1" tooltips="1" connect="1" arrows="1" fold="1" page="1" pageScale="1" pageWidth="827" pageHeight="1169" math="0" shadow="0">
      <root>
        <mxCell id="0" />
        <mxCell id="1" parent="0" />
        <mxCell id="fHndPQtFwbKJOk0-CY-D-1" value="" style="ellipse;whiteSpace=wrap;html=1;aspect=fixed;fillColor=#d5e8d4;strokeColor=#82b366;" vertex="1" parent="1">
          <mxGeometry x="110" y="70" width="50" height="50" as="geometry" />
        </mxCell>
        <mxCell id="fHndPQtFwbKJOk0-CY-D-5" style="edgeStyle=orthogonalEdgeStyle;rounded=0;orthogonalLoop=1;jettySize=auto;html=1;exitX=0.5;exitY=1;exitDx=0;exitDy=0;exitPerimeter=0;entryX=0.5;entryY=0;entryDx=0;entryDy=0;" edge="1" parent="1" source="fHndPQtFwbKJOk0-CY-D-2" target="fHndPQtFwbKJOk0-CY-D-4">
          <mxGeometry relative="1" as="geometry" />
        </mxCell>
        <mxCell id="fHndPQtFwbKJOk0-CY-D-2" value="Num1&lt;div&gt;Num2&lt;/div&gt;" style="shape=card;whiteSpace=wrap;html=1;fillColor=#fff2cc;strokeColor=#d6b656;" vertex="1" parent="1">
          <mxGeometry x="100" y="140" width="70" height="60" as="geometry" />
        </mxCell>
        <mxCell id="fHndPQtFwbKJOk0-CY-D-3" style="edgeStyle=orthogonalEdgeStyle;rounded=0;orthogonalLoop=1;jettySize=auto;html=1;exitX=0.5;exitY=1;exitDx=0;exitDy=0;entryX=0.5;entryY=0;entryDx=0;entryDy=0;entryPerimeter=0;" edge="1" parent="1" source="fHndPQtFwbKJOk0-CY-D-1" target="fHndPQtFwbKJOk0-CY-D-2">
          <mxGeometry relative="1" as="geometry" />
        </mxCell>
        <mxCell id="fHndPQtFwbKJOk0-CY-D-7" style="edgeStyle=orthogonalEdgeStyle;rounded=0;orthogonalLoop=1;jettySize=auto;html=1;exitX=0.5;exitY=1;exitDx=0;exitDy=0;entryX=0.5;entryY=0;entryDx=0;entryDy=0;" edge="1" parent="1" source="fHndPQtFwbKJOk0-CY-D-4" target="fHndPQtFwbKJOk0-CY-D-6">
          <mxGeometry relative="1" as="geometry" />
        </mxCell>
        <mxCell id="fHndPQtFwbKJOk0-CY-D-4" value="Num1 = Metade(Num1)&lt;div&gt;&lt;br&gt;&lt;/div&gt;&lt;div&gt;Num2 = Metade(Num2)&lt;/div&gt;" style="rounded=0;whiteSpace=wrap;html=1;fillColor=#e1d5e7;strokeColor=#9673a6;" vertex="1" parent="1">
          <mxGeometry x="60" y="220" width="150" height="60" as="geometry" />
        </mxCell>
        <mxCell id="fHndPQtFwbKJOk0-CY-D-9" style="edgeStyle=orthogonalEdgeStyle;rounded=0;orthogonalLoop=1;jettySize=auto;html=1;exitX=0.5;exitY=0;exitDx=0;exitDy=0;entryX=0.5;entryY=0;entryDx=0;entryDy=0;" edge="1" parent="1" source="fHndPQtFwbKJOk0-CY-D-6" target="fHndPQtFwbKJOk0-CY-D-8">
          <mxGeometry relative="1" as="geometry">
            <Array as="points">
              <mxPoint x="135" y="330" />
              <mxPoint x="135" y="330" />
            </Array>
          </mxGeometry>
        </mxCell>
        <mxCell id="fHndPQtFwbKJOk0-CY-D-6" value="&quot; A metade dos números é &quot; Num1 &quot; e &quot; Num2" style="shape=document;whiteSpace=wrap;html=1;boundedLbl=1;fillColor=#dae8fc;strokeColor=#6c8ebf;" vertex="1" parent="1">
          <mxGeometry x="75" y="300" width="120" height="80" as="geometry" />
        </mxCell>
        <mxCell id="fHndPQtFwbKJOk0-CY-D-8" value="" style="ellipse;whiteSpace=wrap;html=1;aspect=fixed;fillColor=#f8cecc;strokeColor=#b85450;" vertex="1" parent="1">
          <mxGeometry x="110" y="390" width="50" height="50" as="geometry" />
        </mxCell>
        <mxCell id="fHndPQtFwbKJOk0-CY-D-12" style="edgeStyle=orthogonalEdgeStyle;rounded=0;orthogonalLoop=1;jettySize=auto;html=1;exitX=0.5;exitY=1;exitDx=0;exitDy=0;entryX=0.5;entryY=0;entryDx=0;entryDy=0;" edge="1" parent="1" source="fHndPQtFwbKJOk0-CY-D-10" target="fHndPQtFwbKJOk0-CY-D-11">
          <mxGeometry relative="1" as="geometry" />
        </mxCell>
        <mxCell id="fHndPQtFwbKJOk0-CY-D-10" value="" style="ellipse;whiteSpace=wrap;html=1;aspect=fixed;fillColor=#d5e8d4;strokeColor=#82b366;" vertex="1" parent="1">
          <mxGeometry x="240" y="96" width="50" height="50" as="geometry" />
        </mxCell>
        <mxCell id="fHndPQtFwbKJOk0-CY-D-14" style="edgeStyle=orthogonalEdgeStyle;rounded=0;orthogonalLoop=1;jettySize=auto;html=1;exitX=0.5;exitY=1;exitDx=0;exitDy=0;entryX=0.5;entryY=0;entryDx=0;entryDy=0;" edge="1" parent="1" source="fHndPQtFwbKJOk0-CY-D-11" target="fHndPQtFwbKJOk0-CY-D-13">
          <mxGeometry relative="1" as="geometry" />
        </mxCell>
        <mxCell id="fHndPQtFwbKJOk0-CY-D-11" value="Meio = Num/2" style="rounded=0;whiteSpace=wrap;html=1;fillColor=#e1d5e7;strokeColor=#9673a6;" vertex="1" parent="1">
          <mxGeometry x="212" y="166" width="106" height="40" as="geometry" />
        </mxCell>
        <mxCell id="fHndPQtFwbKJOk0-CY-D-13" value="return&lt;div&gt;Meio&lt;/div&gt;" style="ellipse;whiteSpace=wrap;html=1;aspect=fixed;fillColor=#f8cecc;strokeColor=#b85450;" vertex="1" parent="1">
          <mxGeometry x="240" y="226" width="50" height="50" as="geometry" />
        </mxCell>
        <mxCell id="fHndPQtFwbKJOk0-CY-D-15" value="Main" style="text;html=1;align=center;verticalAlign=middle;resizable=0;points=[];autosize=1;strokeColor=none;fillColor=none;fontSize=24;fontStyle=1" vertex="1" parent="1">
          <mxGeometry x="95" y="30" width="80" height="40" as="geometry" />
        </mxCell>
        <mxCell id="fHndPQtFwbKJOk0-CY-D-16" value="Metade" style="text;html=1;align=center;verticalAlign=middle;resizable=0;points=[];autosize=1;strokeColor=none;fillColor=none;fontSize=24;fontStyle=1" vertex="1" parent="1">
          <mxGeometry x="215" y="30" width="100" height="40" as="geometry" />
        </mxCell>
        <mxCell id="fHndPQtFwbKJOk0-CY-D-17" value="Entrada: float Num&lt;div&gt;Saída: float Meio&lt;/div&gt;" style="text;html=1;align=center;verticalAlign=middle;resizable=0;points=[];autosize=1;strokeColor=none;fillColor=none;" vertex="1" parent="1">
          <mxGeometry x="205" y="60" width="120" height="40" as="geometry" />
        </mxCell>
      </root>
    </mxGraphModel>
  </diagram>
</mxfile>
